<?xml version="1.0" encoding="UTF-8" standalone="no"?>
<!-- Created with Inkscape (http://www.inkscape.org/) -->

<svg
   xmlns:dc="http://purl.org/dc/elements/1.1/"
   xmlns:cc="http://creativecommons.org/ns#"
   xmlns:rdf="http://www.w3.org/1999/02/22-rdf-syntax-ns#"
   xmlns:svg="http://www.w3.org/2000/svg"
   xmlns="http://www.w3.org/2000/svg"
   xmlns:sodipodi="http://sodipodi.sourceforge.net/DTD/sodipodi-0.dtd"
   xmlns:inkscape="http://www.inkscape.org/namespaces/inkscape"
   width="221.70312"
   height="256"
   viewBox="0 0 58.658951 67.733335"
   version="1.1"
   id="svg8"
   sodipodi:docname="harrypotter.svg"
   inkscape:version="0.92.4 5da689c313, 2019-01-14">
  <defs
     id="defs2">
    <clipPath
       clipPathUnits="userSpaceOnUse"
       id="clipPath6502">
      <path
         sodipodi:nodetypes="ccccccc"
         inkscape:connector-curvature="0"
         id="path6504"
         d="m 280.43804,-140.75833 v 31.74999 l -27.49632,15.875021 -27.49629,-15.875021 -3e-5,-31.74999 27.49632,-15.875 z"
         inkscape:transform-center-y="4.6911135e-06"
         inkscape:transform-center-x="-5.3797595e-06"
         style="opacity:0.52399998;fill:#cfd8dc;fill-opacity:1;stroke:none;stroke-width:0.28970984;stroke-linecap:round;stroke-linejoin:round;stroke-miterlimit:4;stroke-dasharray:none;stroke-dashoffset:0;stroke-opacity:1" />
    </clipPath>
  </defs>
  <sodipodi:namedview
     id="base"
     pagecolor="#ffffff"
     bordercolor="#666666"
     borderopacity="1.0"
     inkscape:pageopacity="0.0"
     inkscape:pageshadow="2"
     inkscape:zoom="1"
     inkscape:cx="-118.14845"
     inkscape:cy="-8.9999802"
     inkscape:document-units="px"
     inkscape:current-layer="layer1"
     showgrid="false"
     units="px"
     inkscape:window-width="2477"
     inkscape:window-height="1369"
     inkscape:window-x="83"
     inkscape:window-y="34"
     inkscape:window-maximized="1"
     fit-margin-top="0"
     fit-margin-left="0"
     fit-margin-right="0"
     fit-margin-bottom="0" />
  <metadata
     id="metadata5">
    <rdf:RDF>
      <cc:Work
         rdf:about="">
        <dc:format>image/svg+xml</dc:format>
        <dc:type
           rdf:resource="http://purl.org/dc/dcmitype/StillImage" />
        <dc:title></dc:title>
      </cc:Work>
    </rdf:RDF>
  </metadata>
  <g
     inkscape:label="Layer 1"
     inkscape:groupmode="layer"
     id="layer1"
     transform="translate(-111.69345,-94.593738)">
    <g
       transform="translate(-111.91876,253.34373)"
       id="g9483"
       inkscape:export-xdpi="96"
       inkscape:export-ydpi="96">
      <path
         sodipodi:nodetypes="ccccccc"
         inkscape:connector-curvature="0"
         id="path2201-7"
         d="m 280.438,-140.75832 v 31.74999 l -27.49631,15.875009 -27.49631,-15.875009 -1e-5,-31.74999 27.49632,-15.875 z"
         inkscape:transform-center-y="4.6911135e-06"
         inkscape:transform-center-x="-5.3797595e-06"
         style="opacity:1;fill:#ffffff;fill-opacity:1;stroke:none;stroke-width:0.28970984;stroke-linecap:round;stroke-linejoin:round;stroke-miterlimit:4;stroke-dasharray:none;stroke-dashoffset:0;stroke-opacity:1" />
      <g
         style="opacity:0.5"
         clip-path="url(#clipPath6502)"
         id="g6500">
        <path
           sodipodi:nodetypes="ccccccc"
           inkscape:connector-curvature="0"
           id="path5047"
           d="m 268.65389,-133.95476 v 4.53572 l -3.92804,2.26786 -3.92804,-2.26786 v -4.53572 l 3.92804,-2.26785 z"
           style="opacity:1;fill:#e34700;fill-opacity:1;stroke:none;stroke-width:0.0413871;stroke-linecap:round;stroke-linejoin:round;stroke-miterlimit:4;stroke-dasharray:none;stroke-dashoffset:0;stroke-opacity:1" />
        <path
           style="opacity:1;fill:#0a7ca0;fill-opacity:1;stroke:none;stroke-width:0.0413871;stroke-linecap:round;stroke-linejoin:round;stroke-miterlimit:4;stroke-dasharray:none;stroke-dashoffset:0;stroke-opacity:1"
           d="m 260.79781,-133.95476 v 4.53572 l -3.92804,2.26786 -3.92804,-2.26786 v -4.53572 l 3.92804,-2.26785 z"
           id="path5049"
           inkscape:connector-curvature="0"
           sodipodi:nodetypes="ccccccc" />
        <path
           sodipodi:nodetypes="ccccccc"
           inkscape:connector-curvature="0"
           id="path5051"
           d="m 256.86977,-140.75833 v 4.53572 l -3.92804,2.26785 -3.92804,-2.26785 v -4.53572 l 3.92804,-2.26785 z"
           style="opacity:1;fill:#ecbb3e;fill-opacity:1;stroke:none;stroke-width:0.0413871;stroke-linecap:round;stroke-linejoin:round;stroke-miterlimit:4;stroke-dasharray:none;stroke-dashoffset:0;stroke-opacity:1" />
        <path
           style="opacity:1;fill:#55844d;fill-opacity:1;stroke:none;stroke-width:0.0413871;stroke-linecap:round;stroke-linejoin:round;stroke-miterlimit:4;stroke-dasharray:none;stroke-dashoffset:0;stroke-opacity:1"
           d="m 264.72585,-140.75833 v 4.53572 l -3.92804,2.26785 -3.92804,-2.26785 v -4.53572 l 3.92804,-2.26785 z"
           id="path5053"
           inkscape:connector-curvature="0"
           sodipodi:nodetypes="ccccccc" />
        <path
           sodipodi:nodetypes="ccccccc"
           inkscape:connector-curvature="0"
           id="path5067"
           d="m 276.50997,-120.34762 v 4.53572 l -3.92804,2.26786 -3.92804,-2.26786 v -4.53572 l 3.92804,-2.26785 z"
           style="opacity:1;fill:#e34700;fill-opacity:1;stroke:none;stroke-width:0.0413871;stroke-linecap:round;stroke-linejoin:round;stroke-miterlimit:4;stroke-dasharray:none;stroke-dashoffset:0;stroke-opacity:1" />
        <path
           style="opacity:1;fill:#0a7ca0;fill-opacity:1;stroke:none;stroke-width:0.0413871;stroke-linecap:round;stroke-linejoin:round;stroke-miterlimit:4;stroke-dasharray:none;stroke-dashoffset:0;stroke-opacity:1"
           d="m 268.65389,-120.34762 v 4.53572 l -3.92804,2.26786 -3.92804,-2.26786 v -4.53572 l 3.92804,-2.26785 z"
           id="path5069"
           inkscape:connector-curvature="0"
           sodipodi:nodetypes="ccccccc" />
        <path
           sodipodi:nodetypes="ccccccc"
           inkscape:connector-curvature="0"
           id="path5071"
           d="m 264.72585,-127.15119 v 4.53572 l -3.92804,2.26785 -3.92804,-2.26785 v -4.53572 l 3.92804,-2.26785 z"
           style="opacity:1;fill:#ecbb3e;fill-opacity:1;stroke:none;stroke-width:0.0413871;stroke-linecap:round;stroke-linejoin:round;stroke-miterlimit:4;stroke-dasharray:none;stroke-dashoffset:0;stroke-opacity:1" />
        <path
           style="opacity:1;fill:#55844d;fill-opacity:1;stroke:none;stroke-width:0.0413871;stroke-linecap:round;stroke-linejoin:round;stroke-miterlimit:4;stroke-dasharray:none;stroke-dashoffset:0;stroke-opacity:1"
           d="m 272.58193,-127.15119 v 4.53572 l -3.92804,2.26785 -3.92804,-2.26785 v -4.53572 l 3.92804,-2.26785 z"
           id="path5073"
           inkscape:connector-curvature="0"
           sodipodi:nodetypes="ccccccc" />
        <path
           style="opacity:1;fill:#e34700;fill-opacity:1;stroke:none;stroke-width:0.0413871;stroke-linecap:round;stroke-linejoin:round;stroke-miterlimit:4;stroke-dasharray:none;stroke-dashoffset:0;stroke-opacity:1"
           d="m 284.36605,-133.95476 v 4.53572 l -3.92804,2.26786 -3.92804,-2.26786 v -4.53572 l 3.92804,-2.26785 z"
           id="path5127"
           inkscape:connector-curvature="0"
           sodipodi:nodetypes="ccccccc" />
        <path
           sodipodi:nodetypes="ccccccc"
           inkscape:connector-curvature="0"
           id="path5129"
           d="m 276.50997,-133.95476 v 4.53572 l -3.92804,2.26786 -3.92804,-2.26786 v -4.53572 l 3.92804,-2.26785 z"
           style="opacity:1;fill:#0a7ca0;fill-opacity:1;stroke:none;stroke-width:0.0413871;stroke-linecap:round;stroke-linejoin:round;stroke-miterlimit:4;stroke-dasharray:none;stroke-dashoffset:0;stroke-opacity:1" />
        <path
           style="opacity:1;fill:#ecbb3e;fill-opacity:1;stroke:none;stroke-width:0.0413871;stroke-linecap:round;stroke-linejoin:round;stroke-miterlimit:4;stroke-dasharray:none;stroke-dashoffset:0;stroke-opacity:1"
           d="m 272.58193,-140.75833 v 4.53572 l -3.92804,2.26785 -3.92804,-2.26785 v -4.53572 l 3.92804,-2.26785 z"
           id="path5131"
           inkscape:connector-curvature="0"
           sodipodi:nodetypes="ccccccc" />
        <path
           sodipodi:nodetypes="ccccccc"
           inkscape:connector-curvature="0"
           id="path5133"
           d="m 280.43801,-140.75833 v 4.53572 l -3.92804,2.26785 -3.92804,-2.26785 v -4.53572 l 3.92804,-2.26785 z"
           style="opacity:1;fill:#55844d;fill-opacity:1;stroke:none;stroke-width:0.0413871;stroke-linecap:round;stroke-linejoin:round;stroke-miterlimit:4;stroke-dasharray:none;stroke-dashoffset:0;stroke-opacity:1" />
        <path
           style="opacity:1;fill:#0a7ca0;fill-opacity:1;stroke:none;stroke-width:0.0413871;stroke-linecap:round;stroke-linejoin:round;stroke-miterlimit:4;stroke-dasharray:none;stroke-dashoffset:0;stroke-opacity:1"
           d="m 284.36605,-120.34762 v 4.53572 l -3.92804,2.26786 -3.92804,-2.26786 v -4.53572 l 3.92804,-2.26785 z"
           id="path5139"
           inkscape:connector-curvature="0"
           sodipodi:nodetypes="ccccccc" />
        <path
           sodipodi:nodetypes="ccccccc"
           inkscape:connector-curvature="0"
           id="path5141"
           d="m 280.43801,-127.15119 v 4.53572 l -3.92804,2.26785 -3.92804,-2.26785 v -4.53572 l 3.92804,-2.26785 z"
           style="opacity:1;fill:#ecbb3e;fill-opacity:1;stroke:none;stroke-width:0.0413871;stroke-linecap:round;stroke-linejoin:round;stroke-miterlimit:4;stroke-dasharray:none;stroke-dashoffset:0;stroke-opacity:1" />
        <path
           sodipodi:nodetypes="ccccccc"
           inkscape:connector-curvature="0"
           id="path5169"
           d="m 276.50997,-106.74047 v 4.53572 l -3.92804,2.26786 -3.92804,-2.26786 v -4.53572 l 3.92804,-2.26785 z"
           style="opacity:1;fill:#0a7ca0;fill-opacity:1;stroke:none;stroke-width:0.0413871;stroke-linecap:round;stroke-linejoin:round;stroke-miterlimit:4;stroke-dasharray:none;stroke-dashoffset:0;stroke-opacity:1" />
        <path
           style="opacity:1;fill:#ecbb3e;fill-opacity:1;stroke:none;stroke-width:0.0413871;stroke-linecap:round;stroke-linejoin:round;stroke-miterlimit:4;stroke-dasharray:none;stroke-dashoffset:0;stroke-opacity:1"
           d="m 272.58193,-113.54404 v 4.53572 l -3.92804,2.26785 -3.92804,-2.26785 v -4.53572 l 3.92804,-2.26785 z"
           id="path5171"
           inkscape:connector-curvature="0"
           sodipodi:nodetypes="ccccccc" />
        <path
           sodipodi:nodetypes="ccccccc"
           inkscape:connector-curvature="0"
           id="path5173"
           d="m 280.43801,-113.54404 v 4.53572 l -3.92804,2.26785 -3.92804,-2.26785 v -4.53572 l 3.92804,-2.26785 z"
           style="opacity:1;fill:#55844d;fill-opacity:1;stroke:none;stroke-width:0.0413871;stroke-linecap:round;stroke-linejoin:round;stroke-miterlimit:4;stroke-dasharray:none;stroke-dashoffset:0;stroke-opacity:1" />
        <path
           sodipodi:nodetypes="ccccccc"
           inkscape:connector-curvature="0"
           id="path5237"
           d="m 229.37349,-120.34762 v 4.53572 l -3.92804,2.26786 -3.92804,-2.26786 v -4.53572 l 3.92804,-2.26785 z"
           style="opacity:1;fill:#e34700;fill-opacity:1;stroke:none;stroke-width:0.0413871;stroke-linecap:round;stroke-linejoin:round;stroke-miterlimit:4;stroke-dasharray:none;stroke-dashoffset:0;stroke-opacity:1" />
        <path
           style="opacity:1;fill:#e34700;fill-opacity:1;stroke:none;stroke-width:0.0413871;stroke-linecap:round;stroke-linejoin:round;stroke-miterlimit:4;stroke-dasharray:none;stroke-dashoffset:0;stroke-opacity:1"
           d="m 237.22957,-133.95476 v 4.53572 l -3.92804,2.26786 -3.92804,-2.26786 v -4.53572 l 3.92804,-2.26785 z"
           id="path5247"
           inkscape:connector-curvature="0"
           sodipodi:nodetypes="ccccccc" />
        <path
           sodipodi:nodetypes="ccccccc"
           inkscape:connector-curvature="0"
           id="path5249"
           d="m 229.37349,-133.95476 v 4.53572 l -3.92804,2.26786 -3.92804,-2.26786 v -4.53572 l 3.92804,-2.26785 z"
           style="opacity:1;fill:#0a7ca0;fill-opacity:1;stroke:none;stroke-width:0.0413871;stroke-linecap:round;stroke-linejoin:round;stroke-miterlimit:4;stroke-dasharray:none;stroke-dashoffset:0;stroke-opacity:1" />
        <path
           sodipodi:nodetypes="ccccccc"
           inkscape:connector-curvature="0"
           id="path5253"
           d="m 233.30153,-140.75833 v 4.53572 l -3.92804,2.26785 -3.92804,-2.26785 v -4.53572 l 3.92804,-2.26785 z"
           style="opacity:1;fill:#55844d;fill-opacity:1;stroke:none;stroke-width:0.0413871;stroke-linecap:round;stroke-linejoin:round;stroke-miterlimit:4;stroke-dasharray:none;stroke-dashoffset:0;stroke-opacity:1" />
        <path
           sodipodi:nodetypes="ccccccc"
           inkscape:connector-curvature="0"
           id="path5257"
           d="m 245.08565,-120.34762 v 4.53572 l -3.92804,2.26786 -3.92804,-2.26786 v -4.53572 l 3.92804,-2.26785 z"
           style="opacity:1;fill:#e34700;fill-opacity:1;stroke:none;stroke-width:0.0413871;stroke-linecap:round;stroke-linejoin:round;stroke-miterlimit:4;stroke-dasharray:none;stroke-dashoffset:0;stroke-opacity:1" />
        <path
           style="opacity:1;fill:#0a7ca0;fill-opacity:1;stroke:none;stroke-width:0.0413871;stroke-linecap:round;stroke-linejoin:round;stroke-miterlimit:4;stroke-dasharray:none;stroke-dashoffset:0;stroke-opacity:1"
           d="m 237.22957,-120.34762 v 4.53572 l -3.92804,2.26786 -3.92804,-2.26786 v -4.53572 l 3.92804,-2.26785 z"
           id="path5259"
           inkscape:connector-curvature="0"
           sodipodi:nodetypes="ccccccc" />
        <path
           sodipodi:nodetypes="ccccccc"
           inkscape:connector-curvature="0"
           id="path5261"
           d="m 233.30153,-127.15119 v 4.53572 l -3.92804,2.26785 -3.92804,-2.26785 v -4.53572 l 3.92804,-2.26785 z"
           style="opacity:1;fill:#ecbb3e;fill-opacity:1;stroke:none;stroke-width:0.0413871;stroke-linecap:round;stroke-linejoin:round;stroke-miterlimit:4;stroke-dasharray:none;stroke-dashoffset:0;stroke-opacity:1" />
        <path
           style="opacity:1;fill:#55844d;fill-opacity:1;stroke:none;stroke-width:0.0413871;stroke-linecap:round;stroke-linejoin:round;stroke-miterlimit:4;stroke-dasharray:none;stroke-dashoffset:0;stroke-opacity:1"
           d="m 241.15761,-127.15119 v 4.53572 l -3.92804,2.26785 -3.92804,-2.26785 v -4.53572 l 3.92804,-2.26785 z"
           id="path5263"
           inkscape:connector-curvature="0"
           sodipodi:nodetypes="ccccccc" />
        <path
           style="opacity:1;fill:#e34700;fill-opacity:1;stroke:none;stroke-width:0.0413871;stroke-linecap:round;stroke-linejoin:round;stroke-miterlimit:4;stroke-dasharray:none;stroke-dashoffset:0;stroke-opacity:1"
           d="m 252.94173,-133.95476 v 4.53572 l -3.92804,2.26786 -3.92804,-2.26786 v -4.53572 l 3.92804,-2.26785 z"
           id="path5267"
           inkscape:connector-curvature="0"
           sodipodi:nodetypes="ccccccc" />
        <path
           sodipodi:nodetypes="ccccccc"
           inkscape:connector-curvature="0"
           id="path5269"
           d="m 245.08565,-133.95476 v 4.53572 l -3.92804,2.26786 -3.92804,-2.26786 v -4.53572 l 3.92804,-2.26785 z"
           style="opacity:1;fill:#0a7ca0;fill-opacity:1;stroke:none;stroke-width:0.0413871;stroke-linecap:round;stroke-linejoin:round;stroke-miterlimit:4;stroke-dasharray:none;stroke-dashoffset:0;stroke-opacity:1" />
        <path
           style="opacity:1;fill:#ecbb3e;fill-opacity:1;stroke:none;stroke-width:0.0413871;stroke-linecap:round;stroke-linejoin:round;stroke-miterlimit:4;stroke-dasharray:none;stroke-dashoffset:0;stroke-opacity:1"
           d="m 241.15761,-140.75833 v 4.53572 l -3.92804,2.26785 -3.92804,-2.26785 v -4.53572 l 3.92804,-2.26785 z"
           id="path5271"
           inkscape:connector-curvature="0"
           sodipodi:nodetypes="ccccccc" />
        <path
           sodipodi:nodetypes="ccccccc"
           inkscape:connector-curvature="0"
           id="path5273"
           d="m 249.01369,-140.75833 v 4.53572 l -3.92804,2.26785 -3.92804,-2.26785 v -4.53572 l 3.92804,-2.26785 z"
           style="opacity:1;fill:#55844d;fill-opacity:1;stroke:none;stroke-width:0.0413871;stroke-linecap:round;stroke-linejoin:round;stroke-miterlimit:4;stroke-dasharray:none;stroke-dashoffset:0;stroke-opacity:1" />
        <path
           sodipodi:nodetypes="ccccccc"
           inkscape:connector-curvature="0"
           id="path5277"
           d="m 260.79781,-120.34762 v 4.53572 l -3.92804,2.26786 -3.92804,-2.26786 v -4.53572 l 3.92804,-2.26785 z"
           style="opacity:1;fill:#e34700;fill-opacity:1;stroke:none;stroke-width:0.0413871;stroke-linecap:round;stroke-linejoin:round;stroke-miterlimit:4;stroke-dasharray:none;stroke-dashoffset:0;stroke-opacity:1" />
        <path
           style="opacity:1;fill:#0a7ca0;fill-opacity:1;stroke:none;stroke-width:0.0413871;stroke-linecap:round;stroke-linejoin:round;stroke-miterlimit:4;stroke-dasharray:none;stroke-dashoffset:0;stroke-opacity:1"
           d="m 252.94173,-120.34762 v 4.53572 l -3.92804,2.26786 -3.92804,-2.26786 v -4.53572 l 3.92804,-2.26785 z"
           id="path5279"
           inkscape:connector-curvature="0"
           sodipodi:nodetypes="ccccccc" />
        <path
           sodipodi:nodetypes="ccccccc"
           inkscape:connector-curvature="0"
           id="path5281"
           d="m 249.01369,-127.15119 v 4.53572 l -3.92804,2.26785 -3.92804,-2.26785 v -4.53572 l 3.92804,-2.26785 z"
           style="opacity:1;fill:#ecbb3e;fill-opacity:1;stroke:none;stroke-width:0.0413871;stroke-linecap:round;stroke-linejoin:round;stroke-miterlimit:4;stroke-dasharray:none;stroke-dashoffset:0;stroke-opacity:1" />
        <path
           style="opacity:1;fill:#55844d;fill-opacity:1;stroke:none;stroke-width:0.0413871;stroke-linecap:round;stroke-linejoin:round;stroke-miterlimit:4;stroke-dasharray:none;stroke-dashoffset:0;stroke-opacity:1"
           d="m 256.86977,-127.15119 v 4.53572 l -3.92804,2.26785 -3.92804,-2.26785 v -4.53572 l 3.92804,-2.26785 z"
           id="path5283"
           inkscape:connector-curvature="0"
           sodipodi:nodetypes="ccccccc" />
        <path
           style="opacity:1;fill:#e34700;fill-opacity:1;stroke:none;stroke-width:0.0413871;stroke-linecap:round;stroke-linejoin:round;stroke-miterlimit:4;stroke-dasharray:none;stroke-dashoffset:0;stroke-opacity:1"
           d="m 237.22957,-106.74047 v 4.53572 l -3.92804,2.26786 -3.92804,-2.26786 v -4.53572 l 3.92804,-2.26785 z"
           id="path5287"
           inkscape:connector-curvature="0"
           sodipodi:nodetypes="ccccccc" />
        <path
           sodipodi:nodetypes="ccccccc"
           inkscape:connector-curvature="0"
           id="path5293"
           d="m 233.30153,-113.54404 v 4.53572 l -3.92804,2.26785 -3.92804,-2.26785 v -4.53572 l 3.92804,-2.26785 z"
           style="opacity:1;fill:#55844d;fill-opacity:1;stroke:none;stroke-width:0.0413871;stroke-linecap:round;stroke-linejoin:round;stroke-miterlimit:4;stroke-dasharray:none;stroke-dashoffset:0;stroke-opacity:1" />
        <path
           sodipodi:nodetypes="ccccccc"
           inkscape:connector-curvature="0"
           id="path5307"
           d="m 252.94173,-106.74047 v 4.53572 l -3.92804,2.26786 -3.92804,-2.26786 v -4.53572 l 3.92804,-2.26785 z"
           style="opacity:1;fill:#e34700;fill-opacity:1;stroke:none;stroke-width:0.0413871;stroke-linecap:round;stroke-linejoin:round;stroke-miterlimit:4;stroke-dasharray:none;stroke-dashoffset:0;stroke-opacity:1" />
        <path
           style="opacity:1;fill:#0a7ca0;fill-opacity:1;stroke:none;stroke-width:0.0413871;stroke-linecap:round;stroke-linejoin:round;stroke-miterlimit:4;stroke-dasharray:none;stroke-dashoffset:0;stroke-opacity:1"
           d="m 245.08565,-106.74047 v 4.53572 l -3.92804,2.26786 -3.92804,-2.26786 v -4.53572 l 3.92804,-2.26785 z"
           id="path5309"
           inkscape:connector-curvature="0"
           sodipodi:nodetypes="ccccccc" />
        <path
           sodipodi:nodetypes="ccccccc"
           inkscape:connector-curvature="0"
           id="path5311"
           d="m 241.15761,-113.54404 v 4.53572 l -3.92804,2.26785 -3.92804,-2.26785 v -4.53572 l 3.92804,-2.26785 z"
           style="opacity:1;fill:#ecbb3e;fill-opacity:1;stroke:none;stroke-width:0.0413871;stroke-linecap:round;stroke-linejoin:round;stroke-miterlimit:4;stroke-dasharray:none;stroke-dashoffset:0;stroke-opacity:1" />
        <path
           style="opacity:1;fill:#55844d;fill-opacity:1;stroke:none;stroke-width:0.0413871;stroke-linecap:round;stroke-linejoin:round;stroke-miterlimit:4;stroke-dasharray:none;stroke-dashoffset:0;stroke-opacity:1"
           d="m 249.01369,-113.54404 v 4.53572 l -3.92804,2.26785 -3.92804,-2.26785 v -4.53572 l 3.92804,-2.26785 z"
           id="path5313"
           inkscape:connector-curvature="0"
           sodipodi:nodetypes="ccccccc" />
        <path
           style="opacity:1;fill:#ecbb3e;fill-opacity:1;stroke:none;stroke-width:0.0413871;stroke-linecap:round;stroke-linejoin:round;stroke-miterlimit:4;stroke-dasharray:none;stroke-dashoffset:0;stroke-opacity:1"
           d="m 249.01369,-99.9369 v 4.53572 l -3.92804,2.26785 -3.92804,-2.26785 v -4.53572 l 3.92804,-2.26785 z"
           id="path5321"
           inkscape:connector-curvature="0"
           sodipodi:nodetypes="ccccccc" />
        <path
           sodipodi:nodetypes="ccccccc"
           inkscape:connector-curvature="0"
           id="path5323"
           d="m 256.86977,-99.9369 v 4.53572 l -3.92804,2.26785 -3.92804,-2.26785 v -4.53572 l 3.92804,-2.26785 z"
           style="opacity:1;fill:#55844d;fill-opacity:1;stroke:none;stroke-width:0.0413871;stroke-linecap:round;stroke-linejoin:round;stroke-miterlimit:4;stroke-dasharray:none;stroke-dashoffset:0;stroke-opacity:1" />
        <path
           sodipodi:nodetypes="ccccccc"
           inkscape:connector-curvature="0"
           id="path5327"
           d="m 268.65389,-106.74047 v 4.53572 l -3.92804,2.26786 -3.92804,-2.26786 v -4.53572 l 3.92804,-2.26785 z"
           style="opacity:1;fill:#e34700;fill-opacity:1;stroke:none;stroke-width:0.0413871;stroke-linecap:round;stroke-linejoin:round;stroke-miterlimit:4;stroke-dasharray:none;stroke-dashoffset:0;stroke-opacity:1" />
        <path
           style="opacity:1;fill:#0a7ca0;fill-opacity:1;stroke:none;stroke-width:0.0413871;stroke-linecap:round;stroke-linejoin:round;stroke-miterlimit:4;stroke-dasharray:none;stroke-dashoffset:0;stroke-opacity:1"
           d="m 260.79781,-106.74047 v 4.53572 l -3.92804,2.26786 -3.92804,-2.26786 v -4.53572 l 3.92804,-2.26785 z"
           id="path5329"
           inkscape:connector-curvature="0"
           sodipodi:nodetypes="ccccccc" />
        <path
           sodipodi:nodetypes="ccccccc"
           inkscape:connector-curvature="0"
           id="path5331"
           d="m 256.86977,-113.54404 v 4.53572 l -3.92804,2.26785 -3.92804,-2.26785 v -4.53572 l 3.92804,-2.26785 z"
           style="opacity:1;fill:#ecbb3e;fill-opacity:1;stroke:none;stroke-width:0.0413871;stroke-linecap:round;stroke-linejoin:round;stroke-miterlimit:4;stroke-dasharray:none;stroke-dashoffset:0;stroke-opacity:1" />
        <path
           style="opacity:1;fill:#55844d;fill-opacity:1;stroke:none;stroke-width:0.0413871;stroke-linecap:round;stroke-linejoin:round;stroke-miterlimit:4;stroke-dasharray:none;stroke-dashoffset:0;stroke-opacity:1"
           d="m 264.72585,-113.54404 v 4.53572 l -3.92804,2.26785 -3.92804,-2.26785 v -4.53572 l 3.92804,-2.26785 z"
           id="path5333"
           inkscape:connector-curvature="0"
           sodipodi:nodetypes="ccccccc" />
        <path
           style="opacity:1;fill:#ecbb3e;fill-opacity:1;stroke:none;stroke-width:0.0413871;stroke-linecap:round;stroke-linejoin:round;stroke-miterlimit:4;stroke-dasharray:none;stroke-dashoffset:0;stroke-opacity:1"
           d="m 264.72585,-99.9369 v 4.53572 l -3.92804,2.26785 -3.92804,-2.26785 v -4.53572 l 3.92804,-2.26785 z"
           id="path5341"
           inkscape:connector-curvature="0"
           sodipodi:nodetypes="ccccccc" />
        <path
           style="opacity:1;fill:#e34700;fill-opacity:1;stroke:none;stroke-width:0.0413871;stroke-linecap:round;stroke-linejoin:round;stroke-miterlimit:4;stroke-dasharray:none;stroke-dashoffset:0;stroke-opacity:1"
           d="m 276.50997,-147.5619 v 4.53572 l -3.92804,2.26786 -3.92804,-2.26786 v -4.53572 l 3.92804,-2.26785 z"
           id="path5347"
           inkscape:connector-curvature="0"
           sodipodi:nodetypes="ccccccc" />
        <path
           sodipodi:nodetypes="ccccccc"
           inkscape:connector-curvature="0"
           id="path5349"
           d="m 268.65389,-147.5619 v 4.53572 l -3.92804,2.26786 -3.92804,-2.26786 v -4.53572 l 3.92804,-2.26785 z"
           style="opacity:1;fill:#0a7ca0;fill-opacity:1;stroke:none;stroke-width:0.0413871;stroke-linecap:round;stroke-linejoin:round;stroke-miterlimit:4;stroke-dasharray:none;stroke-dashoffset:0;stroke-opacity:1" />
        <path
           style="opacity:1;fill:#ecbb3e;fill-opacity:1;stroke:none;stroke-width:0.0413871;stroke-linecap:round;stroke-linejoin:round;stroke-miterlimit:4;stroke-dasharray:none;stroke-dashoffset:0;stroke-opacity:1"
           d="m 264.72585,-154.36547 v 4.53572 l -3.92804,2.26785 -3.92804,-2.26785 v -4.53572 l 3.92804,-2.26785 z"
           id="path5351"
           inkscape:connector-curvature="0"
           sodipodi:nodetypes="ccccccc" />
        <path
           sodipodi:nodetypes="ccccccc"
           inkscape:connector-curvature="0"
           id="path5387"
           d="m 245.08565,-147.5619 v 4.53572 l -3.92804,2.26786 -3.92804,-2.26786 v -4.53572 l 3.92804,-2.26785 z"
           style="opacity:1;fill:#e34700;fill-opacity:1;stroke:none;stroke-width:0.0413871;stroke-linecap:round;stroke-linejoin:round;stroke-miterlimit:4;stroke-dasharray:none;stroke-dashoffset:0;stroke-opacity:1" />
        <path
           style="opacity:1;fill:#0a7ca0;fill-opacity:1;stroke:none;stroke-width:0.0413871;stroke-linecap:round;stroke-linejoin:round;stroke-miterlimit:4;stroke-dasharray:none;stroke-dashoffset:0;stroke-opacity:1"
           d="m 237.22957,-147.5619 v 4.53572 l -3.92804,2.26786 -3.92804,-2.26786 v -4.53572 l 3.92804,-2.26785 z"
           id="path5389"
           inkscape:connector-curvature="0"
           sodipodi:nodetypes="ccccccc" />
        <path
           sodipodi:nodetypes="ccccccc"
           inkscape:connector-curvature="0"
           id="path5397"
           d="m 260.79781,-147.5619 v 4.53572 l -3.92804,2.26786 -3.92804,-2.26786 v -4.53572 l 3.92804,-2.26785 z"
           style="opacity:1;fill:#e34700;fill-opacity:1;stroke:none;stroke-width:0.0413871;stroke-linecap:round;stroke-linejoin:round;stroke-miterlimit:4;stroke-dasharray:none;stroke-dashoffset:0;stroke-opacity:1" />
        <path
           style="opacity:1;fill:#0a7ca0;fill-opacity:1;stroke:none;stroke-width:0.0413871;stroke-linecap:round;stroke-linejoin:round;stroke-miterlimit:4;stroke-dasharray:none;stroke-dashoffset:0;stroke-opacity:1"
           d="m 252.94173,-147.5619 v 4.53572 l -3.92804,2.26786 -3.92804,-2.26786 v -4.53572 l 3.92804,-2.26785 z"
           id="path5399"
           inkscape:connector-curvature="0"
           sodipodi:nodetypes="ccccccc" />
        <path
           sodipodi:nodetypes="ccccccc"
           inkscape:connector-curvature="0"
           id="path5401"
           d="m 249.01369,-154.36547 v 4.53572 l -3.92804,2.26785 -3.92804,-2.26785 v -4.53572 l 3.92804,-2.26785 z"
           style="opacity:1;fill:#ecbb3e;fill-opacity:1;stroke:none;stroke-width:0.0413871;stroke-linecap:round;stroke-linejoin:round;stroke-miterlimit:4;stroke-dasharray:none;stroke-dashoffset:0;stroke-opacity:1" />
        <path
           style="opacity:1;fill:#55844d;fill-opacity:1;stroke:none;stroke-width:0.0413871;stroke-linecap:round;stroke-linejoin:round;stroke-miterlimit:4;stroke-dasharray:none;stroke-dashoffset:0;stroke-opacity:1"
           d="m 256.86977,-154.36547 v 4.53572 l -3.92804,2.26785 -3.92804,-2.26785 v -4.53572 l 3.92804,-2.26785 z"
           id="path5403"
           inkscape:connector-curvature="0"
           sodipodi:nodetypes="ccccccc" />
      </g>
      <g
         style="fill:#332b2b;fill-opacity:1"
         id="g3180">
        <g
           id="g2056"
           transform="translate(73.02501,7.6753125e-6)"
           style="fill:#332b2b;fill-opacity:1">
          <path
             style="opacity:1;fill:#332b2b;fill-opacity:1;stroke:none;stroke-width:1.16796398;stroke-linecap:round;stroke-linejoin:round;stroke-miterlimit:4;stroke-dasharray:none;stroke-dashoffset:0;stroke-opacity:1"
             d="M 680,0 569.14844,64 V 192 L 680,256 790.85156,192 V 64 Z m 0,10.5 101.75781,58.75 v 117.5 L 680,245.5 578.24219,186.75 V 69.25 Z"
             transform="matrix(0.26458334,0,0,0.26458334,0,-158.75)"
             id="path2054"
             inkscape:connector-curvature="0" />
        </g>
        <g
           id="g2857"
           style="fill:#332b2b;fill-opacity:1">
          <text
             id="text6846-5-1"
             y="-109.1009"
             x="252.93938"
             style="font-style:normal;font-variant:normal;font-weight:bold;font-stretch:normal;font-size:9.47913933px;line-height:1.25;font-family:'Roboto Mono';-inkscape-font-specification:'Roboto Mono Bold';letter-spacing:0px;word-spacing:0px;fill:#332b2b;fill-opacity:1;stroke:none;stroke-width:0.23697847"
             xml:space="preserve"><tspan
               style="font-style:normal;font-variant:normal;font-weight:500;font-stretch:normal;font-family:Roboto;-inkscape-font-specification:'Roboto Medium';text-align:center;text-anchor:middle;fill:#332b2b;fill-opacity:1;stroke-width:0.23697847"
               y="-109.1009"
               x="252.93938"
               id="tspan6844-6-2"
               sodipodi:role="line">harrypotter</tspan></text>
          <g
             style="fill:#332b2b;fill-opacity:1"
             transform="matrix(0.08099583,0,0,0.08099583,220.49998,-156.19608)"
             id="g993">
            <path
               style="fill:#332b2b;fill-opacity:1"
               inkscape:connector-curvature="0"
               d="m 178.3,379.5 c -0.7,0 -1.4,-0.1 -2.2,-0.1 -4.7,0 -9.4,0 -14.2,0 -4.3,0 -8,-2.5 -9.7,-6.5 -1.5,-3.6 -0.7,-6.8 1.6,-9.6 2.3,-2.8 5.3,-4.2 9,-4.1 4.3,0.1 8.6,0 13,0 0.5,0 0.9,-0.1 1.6,-0.1 2.7,-26.6 14.1,-48.6 34.8,-65.4 18.2,-14.7 39.1,-21.4 62.4,-20.3 38.7,1.8 75.5,29.1 85.7,71.8 0.6,-0.4 1.1,-0.7 1.5,-1.1 5.9,-5.4 12.9,-8.9 20.6,-11.2 7,-2 14.2,-2.8 21.5,-2.8 2,0 4,0.2 6,0.5 2.6,0.4 5.2,0.8 7.7,1.4 8.1,1.7 15.3,5.1 21.6,10.6 0.5,0.4 0.9,0.8 1.6,1.3 7.2,-26.5 22.7,-46.5 46.5,-59.6 16,-8.8 33.3,-12.3 51.4,-10.7 22.5,2.1 42,11.1 58,27.4 15.8,16.1 24.7,35.5 26.7,58.2 1,0 1.8,0.1 2.7,0.1 4.4,0 8.8,0 13.2,0 5.9,0 10.8,5.7 10.3,11 -0.3,4.2 -5,9.5 -9.6,9.3 -5,-0.2 -9.9,0 -14.9,0 -0.8,0 -1.6,0 -2.2,0 -1.1,4.7 -2,9.3 -3.3,13.6 -2,6.5 -4.8,12.8 -8.3,18.7 -5.1,8.7 -11.3,16.4 -18.9,23.1 -7.8,6.9 -16.5,12.6 -26.2,16.4 -4.8,1.9 -9.7,3.4 -14.7,4.8 -3.1,0.9 -6.4,1.1 -9.7,1.5 -7.6,1 -15.3,1.1 -22.9,-0.2 -3.7,-0.6 -7.4,-1.3 -11,-2.1 -7.7,-1.8 -14.8,-4.8 -21.7,-8.6 -8.4,-4.6 -15.8,-10.4 -22.4,-17.4 -8.5,-9 -15,-19.2 -19.5,-30.7 -2.2,-5.8 -3.8,-11.8 -5,-17.9 -1,-5.3 -1.3,-10.6 -1.1,-16 0.1,-1.6 -0.5,-2.7 -1.6,-3.8 -4.5,-4.5 -9.7,-7.7 -15.6,-9.9 -7.5,-2.8 -15.2,-3.3 -23.1,-2.9 -9.3,0.4 -17.9,3 -25.6,8.1 -3.2,2.1 -6.1,4.6 -8.6,7.6 -0.7,0.8 -1,1.7 -1,2.8 0.1,9.2 -1.5,18.1 -4.3,26.8 -5.7,17.7 -16,32.4 -30.2,44.2 -6.7,5.6 -14.2,10 -22.2,13.4 -5.7,2.4 -11.6,4.1 -17.7,5.4 -8.6,1.8 -17.3,2.2 -26,1.5 -6.2,-0.5 -12.3,-1.7 -18.3,-3.4 -10,-2.9 -19.3,-7.5 -27.8,-13.6 -8.5,-6 -15.6,-13.3 -21.7,-21.8 -4.4,-6.2 -8.1,-12.8 -10.8,-19.9 -1.9,-5 -3.6,-10 -4.5,-15.3 -0.1,-1.3 -0.5,-2.8 -0.9,-4.5 z M 344.4,366 c 0.1,-41.5 -33.3,-74.1 -73.9,-74.3 -41.7,-0.2 -74,33.1 -74.7,72.7 -0.8,42.3 33.7,75.6 74.2,75.6 40.7,0 74.4,-32.7 74.4,-74 z m 112.4,-0.4 c -0.5,41.3 33.4,74.3 73.9,74.4 40.3,0.1 75.1,-32.2 74.5,-75.4 -0.6,-40.5 -33.1,-72.9 -74.3,-73 -41.3,0 -74.3,33.3 -74.1,74 z"
               id="path974" />
            <path
               style="fill:#332b2b;fill-opacity:1"
               inkscape:connector-curvature="0"
               d="m 381.8,201.1 c -6.5,2.7 -13.1,3.6 -19.3,6.6 0.2,0.8 0.3,1.5 0.5,2.1 2.3,5.4 4.8,10.8 7.1,16.2 4.1,9.7 8.3,19.3 12.3,29 0.8,2 1.4,4.1 2.1,6.1 0.1,0.4 0,0.9 0,1.8 -1,-0.6 -1.9,-0.8 -2.5,-1.3 -2.8,-2.6 -5.7,-5.1 -8.3,-7.9 -4.8,-5.1 -9.5,-10.3 -14.2,-15.6 -6.4,-7.2 -12.7,-14.5 -19,-21.9 -7.2,-8.4 -14.3,-16.8 -21.4,-25.2 -1.2,-1.5 -1.1,-2 0.7,-2.7 6.7,-2.4 13.5,-4.8 20.2,-7.3 1.7,-0.6 3.3,-1.5 5.2,-2.4 -1.2,-2.3 -2.3,-4.4 -3.4,-6.4 -5.9,-11.2 -11.9,-22.4 -17.8,-33.5 -0.9,-1.6 -1.6,-3.3 -2.3,-5 -0.2,-0.5 -0.1,-1 -0.2,-1.9 2.9,0.4 5.6,0.7 8.2,1 3.2,0.4 6.3,0.8 9.5,1.3 3.8,0.6 7.7,1.3 11.5,2.1 1.1,0.2 1.7,1.1 2.1,2.1 2.3,4.6 4.6,9.1 6.8,13.7 4.9,10.4 9.8,20.9 14.7,31.3 2.4,5.2 4.7,10.4 7,15.7 0.4,0.6 0.4,1.3 0.5,2.1 z"
               id="path976" />
            <path
               style="fill:#332b2b;fill-opacity:1"
               inkscape:connector-curvature="0"
               d="m 225.3,338.2 c -0.4,1 -0.6,2.1 -1.1,3.1 -2.5,4.5 -4.2,9.4 -5.1,14.4 -1.1,5.7 -1.3,11.5 -0.4,17.4 1.7,11 6.2,20.5 13.9,28.6 3.4,3.6 7.4,6.6 11.7,9.1 0.7,0.4 1.4,0.8 2,1.4 2.8,2.8 3.2,5.7 1,8.8 -1.7,2.5 -5.2,4 -8.7,2 -12.7,-7.2 -22.1,-17.4 -28.2,-30.7 -4,-8.9 -5.9,-18.2 -5.7,-27.9 0.1,-6.5 1.1,-12.9 3.4,-19 1.3,-3.4 2.7,-6.8 4.4,-10.1 0.6,-1.2 1.7,-2.4 2.9,-3.1 4.2,-2.5 9.8,0.9 9.9,6 z"
               id="path978" />
            <path
               style="fill:#332b2b;fill-opacity:1"
               inkscape:connector-curvature="0"
               d="m 465.8,366.4 c 0.1,-11.3 2.5,-21.3 7.4,-30.6 0.8,-1.5 1.8,-2.9 3.3,-3.7 2.6,-1.4 5.6,-1 7.7,1.1 1.8,1.8 3.1,4.6 1.4,7.9 -1.7,3.1 -3,6.3 -4,9.7 -2,6.3 -2.5,12.9 -1.9,19.4 1.6,17.8 10.4,31.1 25.5,40.5 1.3,0.8 2.5,1.7 3.4,2.9 1.9,2.5 1.5,5.6 -0.7,8.1 -2.1,2.3 -5.3,2.9 -8.1,1.4 -5.9,-3.3 -11.2,-7.4 -15.8,-12.3 -7.1,-7.5 -12.2,-16.2 -15.3,-26 -2,-6.2 -2.8,-12.6 -2.9,-18.4 z"
               id="path980" />
          </g>
        </g>
      </g>
    </g>
  </g>
</svg>
